<?xml version="1.0" encoding="UTF-8" standalone="no"?>
<!DOCTYPE svg PUBLIC "-//W3C//DTD SVG 1.1//EN" "http://www.w3.org/Graphics/SVG/1.1/DTD/svg11.dtd">
<svg width="100%" height="100%" viewBox="0 0 177 59" version="1.1" xmlns="http://www.w3.org/2000/svg" xmlns:xlink="http://www.w3.org/1999/xlink" xml:space="preserve" xmlns:serif="http://www.serif.com/" style="fill-rule:evenodd;clip-rule:evenodd;stroke-miterlimit:2;">
    <g id="ArtBoard1" transform="matrix(0.964936,0,0,1,4.87235,3.73712)">
        <rect x="-5.049" y="-3.737" width="182.891" height="58.848" style="fill:none;"/>
        <g id="StuRa-logo_black_transp.eps" transform="matrix(1.03634,0,0,1,86.2645,23.4994)">
            <g transform="matrix(1,0,0,1,-87,-25.5)">
                <g>
                    <path d="M47.14,12.636L47.14,7.581L69.331,7.581L69.331,12.636L61.213,12.636L61.213,34.923L55.258,34.923L55.258,12.636L47.14,12.636Z" style="fill:rgb(2,2,3);fill-rule:nonzero;"/>
                    <path d="M28.111,28.372C28.444,29.018 28.885,29.542 29.436,29.942C29.987,30.343 30.633,30.64 31.376,30.834C32.118,31.028 32.886,31.125 33.681,31.125C34.218,31.125 34.794,31.08 35.409,30.989C36.023,30.899 36.599,30.724 37.137,30.466C37.674,30.207 38.122,29.852 38.481,29.399C38.84,28.947 39.019,28.372 39.019,27.674C39.019,26.924 38.781,26.317 38.308,25.852C37.834,25.386 37.214,24.999 36.446,24.688C35.677,24.378 34.807,24.107 33.834,23.874C32.861,23.642 31.875,23.384 30.876,23.099C29.852,22.841 28.853,22.524 27.881,22.149C26.907,21.775 26.037,21.29 25.269,20.695C24.501,20.101 23.88,19.357 23.407,18.466C22.932,17.574 22.696,16.495 22.696,15.228C22.696,13.807 22.997,12.572 23.599,11.526C24.2,10.479 24.987,9.606 25.961,8.908C26.933,8.21 28.034,7.694 29.263,7.357C30.492,7.022 31.722,6.853 32.951,6.853C34.384,6.853 35.76,7.015 37.079,7.338C38.398,7.662 39.569,8.185 40.593,8.908C41.617,9.632 42.43,10.556 43.032,11.68C43.634,12.805 43.935,14.169 43.935,15.771L38.097,15.771C38.045,14.944 37.873,14.259 37.578,13.716C37.284,13.173 36.893,12.747 36.407,12.437C35.921,12.126 35.364,11.907 34.736,11.778C34.109,11.648 33.424,11.584 32.682,11.584C32.195,11.584 31.708,11.636 31.222,11.739C30.735,11.842 30.294,12.023 29.897,12.282C29.5,12.54 29.173,12.863 28.918,13.251C28.661,13.639 28.534,14.13 28.534,14.724C28.534,15.267 28.636,15.707 28.841,16.042C29.046,16.379 29.449,16.689 30.051,16.973C30.652,17.258 31.484,17.542 32.547,17.826C33.609,18.111 34.999,18.472 36.714,18.911C37.226,19.015 37.937,19.202 38.846,19.474C39.755,19.745 40.657,20.178 41.554,20.773C42.45,21.367 43.224,22.162 43.877,23.157C44.53,24.152 44.857,25.425 44.857,26.976C44.857,28.243 44.613,29.419 44.127,30.504C43.64,31.59 42.917,32.527 41.957,33.315C40.997,34.104 39.806,34.718 38.385,35.157C36.964,35.596 35.319,35.816 33.45,35.816C31.938,35.816 30.473,35.628 29.052,35.254C27.631,34.88 26.376,34.291 25.288,33.49C24.2,32.689 23.335,31.668 22.696,30.427C22.055,29.186 21.748,27.713 21.774,26.007L27.612,26.007C27.612,26.937 27.778,27.726 28.111,28.372Z" style="fill:rgb(2,2,3);fill-rule:nonzero;"/>
                    <path d="M93.401,33.182C91.325,35.006 88.453,35.918 84.788,35.918C81.07,35.918 78.193,35.013 76.155,33.201C74.117,31.39 73.098,28.595 73.098,24.816L73.098,7.581L79.135,7.581L79.135,24.816C79.135,25.567 79.199,26.305 79.327,27.029C79.456,27.754 79.725,28.394 80.135,28.95C80.545,29.507 81.115,29.96 81.846,30.309C82.577,30.658 83.557,30.833 84.788,30.833C86.941,30.833 88.428,30.348 89.248,29.377C90.069,28.407 90.479,26.887 90.479,24.816L90.479,7.581L96.516,7.581L96.516,24.816C96.516,28.569 95.477,31.357 93.401,33.182Z" style="fill:rgb(2,2,3);fill-rule:nonzero;"/>
                    <path d="M114.851,7.586C116.063,7.586 117.155,7.784 118.128,8.179C119.099,8.574 119.933,9.116 120.627,9.804C121.322,10.492 121.852,11.29 122.219,12.194C122.584,13.099 122.768,14.074 122.768,15.12C122.768,16.726 122.433,18.115 121.764,19.288C121.094,20.461 120.003,21.353 118.487,21.964L118.487,22.041C119.219,22.245 119.826,22.557 120.306,22.978C120.785,23.398 121.177,23.895 121.48,24.469C121.783,25.043 122.004,25.674 122.143,26.362C122.281,27.05 122.376,27.739 122.427,28.427C122.452,28.861 122.477,29.37 122.502,29.957C122.527,30.543 122.572,31.142 122.635,31.754C122.698,32.366 122.799,32.946 122.938,33.494C123.077,34.042 123.285,34.507 123.563,34.889L117.616,34.889C117.288,34.023 117.086,32.99 117.01,31.792C116.934,30.594 116.821,29.447 116.669,28.35C116.467,26.923 116.038,25.878 115.381,25.215C114.724,24.552 113.651,24.221 112.161,24.221L106.215,24.221L106.215,34.889L100.267,34.889L100.267,7.586L114.851,7.586ZM112.73,19.938C114.093,19.938 115.116,19.632 115.798,19.02C116.48,18.408 116.821,17.414 116.821,16.037C116.821,14.712 116.48,13.75 115.798,13.15C115.116,12.551 114.093,12.252 112.73,12.252L106.215,12.252L106.215,19.938L112.73,19.938Z" style="fill:rgb(2,2,3);fill-rule:nonzero;"/>
                    <path d="M3.769,4.345L170.1,4.345" style="fill:none;stroke:rgb(2,3,4);stroke-width:0.75px;"/>
                    <path d="M3.769,38.205L170.1,38.205" style="fill:none;stroke:rgb(2,2,3);stroke-width:0.75px;"/>
                    <path d="M30.021,50.909L36.302,50.909L33.161,45.68L30.021,50.909Z" style="fill:rgb(2,2,3);fill-rule:nonzero;"/>
                    <path d="M40.081,49.995C40.157,50.153 40.262,50.28 40.395,50.373C40.528,50.466 40.686,50.533 40.867,50.574C41.049,50.615 41.243,50.635 41.45,50.635C41.569,50.635 41.698,50.618 41.837,50.583C41.977,50.55 42.107,50.495 42.227,50.42C42.348,50.346 42.448,50.25 42.528,50.133C42.608,50.017 42.649,49.873 42.649,49.707C42.649,49.579 42.62,49.468 42.563,49.375C42.506,49.281 42.432,49.202 42.341,49.138C42.25,49.075 42.15,49.021 42.04,48.981C41.93,48.94 41.822,48.907 41.717,48.881L40.709,48.632C40.578,48.598 40.45,48.555 40.325,48.504C40.201,48.453 40.092,48.385 39.999,48.3C39.906,48.214 39.831,48.111 39.774,47.985C39.717,47.862 39.689,47.711 39.689,47.532C39.689,47.421 39.709,47.29 39.752,47.141C39.794,46.992 39.873,46.851 39.99,46.719C40.106,46.587 40.265,46.475 40.468,46.383C40.671,46.291 40.931,46.245 41.248,46.245C41.472,46.245 41.685,46.275 41.888,46.335C42.091,46.394 42.268,46.484 42.42,46.604C42.572,46.723 42.694,46.872 42.785,47.048C42.876,47.226 42.921,47.431 42.921,47.666L42.49,47.666C42.481,47.491 42.443,47.339 42.373,47.209C42.303,47.078 42.212,46.969 42.1,46.882C41.988,46.794 41.859,46.729 41.713,46.683C41.568,46.639 41.414,46.616 41.254,46.616C41.106,46.616 40.963,46.633 40.826,46.665C40.689,46.697 40.568,46.747 40.465,46.818C40.361,46.888 40.278,46.981 40.215,47.097C40.151,47.211 40.12,47.354 40.12,47.525C40.12,47.632 40.137,47.725 40.173,47.804C40.209,47.882 40.259,47.95 40.322,48.005C40.386,48.06 40.458,48.105 40.541,48.139C40.623,48.174 40.711,48.201 40.804,48.222L41.907,48.499C42.067,48.54 42.218,48.592 42.36,48.654C42.502,48.717 42.626,48.793 42.734,48.885C42.842,48.977 42.926,49.088 42.988,49.22C43.049,49.353 43.079,49.513 43.079,49.701C43.079,49.752 43.074,49.82 43.064,49.905C43.053,49.992 43.028,50.081 42.988,50.177C42.948,50.273 42.89,50.37 42.816,50.47C42.743,50.566 42.641,50.655 42.512,50.734C42.383,50.813 42.224,50.877 42.034,50.926C41.843,50.976 41.615,51 41.349,51C41.083,51 40.836,50.969 40.607,50.907C40.38,50.845 40.185,50.75 40.024,50.622C39.864,50.495 39.74,50.33 39.654,50.13C39.567,49.929 39.53,49.688 39.543,49.406L39.974,49.406C39.969,49.641 40.005,49.838 40.081,49.995Z" style="fill:rgb(2,2,3);fill-rule:nonzero;"/>
                    <path d="M45.115,47.608L45.115,47.947L44.449,47.947L44.449,50.174C44.449,50.306 44.467,50.41 44.503,50.484C44.539,50.559 44.629,50.601 44.772,50.609C44.887,50.609 45.001,50.603 45.115,50.59L45.115,50.929C45.056,50.929 44.996,50.931 44.937,50.937C44.878,50.94 44.819,50.942 44.76,50.942C44.493,50.942 44.307,50.89 44.202,50.785C44.096,50.68 44.045,50.487 44.05,50.206L44.05,47.947L43.479,47.947L43.479,47.608L44.05,47.608L44.05,46.616L44.449,46.616L44.449,47.608L45.115,47.608Z" style="fill:rgb(2,2,3);fill-rule:nonzero;"/>
                    <path d="M48.1,50.91L48.1,50.315L48.087,50.315C47.981,50.537 47.828,50.706 47.628,50.824C47.427,50.941 47.204,51 46.959,51C46.752,51 46.575,50.971 46.43,50.913C46.284,50.856 46.165,50.774 46.075,50.667C45.984,50.56 45.917,50.431 45.875,50.277C45.833,50.123 45.812,49.949 45.812,49.752L45.812,47.609L46.211,47.609L46.211,49.758C46.22,50.057 46.288,50.283 46.417,50.437C46.546,50.59 46.769,50.667 47.086,50.667C47.259,50.667 47.407,50.63 47.53,50.555C47.652,50.481 47.753,50.381 47.834,50.257C47.914,50.134 47.973,49.992 48.011,49.832C48.049,49.672 48.068,49.51 48.068,49.343L48.068,47.609L48.468,47.609L48.468,50.91L48.1,50.91Z" style="fill:rgb(2,2,3);fill-rule:nonzero;"/>
                    <path d="M51.859,50.91L51.859,50.283L51.846,50.283C51.804,50.39 51.742,50.489 51.659,50.578C51.577,50.667 51.483,50.743 51.377,50.805C51.271,50.867 51.159,50.915 51.038,50.949C50.917,50.983 50.798,51 50.68,51C50.43,51 50.214,50.954 50.03,50.863C49.846,50.77 49.693,50.645 49.57,50.485C49.448,50.324 49.357,50.139 49.298,49.928C49.239,49.717 49.209,49.494 49.209,49.26C49.209,49.026 49.239,48.802 49.298,48.59C49.357,48.38 49.448,48.194 49.57,48.034C49.693,47.874 49.846,47.747 50.03,47.653C50.214,47.559 50.43,47.512 50.68,47.512C50.802,47.512 50.922,47.527 51.038,47.557C51.154,47.587 51.263,47.633 51.364,47.695C51.466,47.757 51.555,47.833 51.634,47.922C51.712,48.012 51.772,48.116 51.814,48.236L51.827,48.236L51.827,46.342L52.226,46.342L52.226,50.91L51.859,50.91ZM49.669,49.768C49.709,49.937 49.772,50.087 49.859,50.22C49.946,50.352 50.056,50.459 50.192,50.542C50.327,50.625 50.49,50.667 50.68,50.667C50.891,50.667 51.07,50.625 51.215,50.542C51.361,50.459 51.48,50.352 51.571,50.22C51.661,50.087 51.727,49.937 51.767,49.768C51.807,49.6 51.827,49.431 51.827,49.26C51.827,49.089 51.807,48.919 51.767,48.751C51.727,48.583 51.661,48.432 51.571,48.3C51.48,48.167 51.361,48.059 51.215,47.976C51.07,47.893 50.891,47.852 50.68,47.852C50.49,47.852 50.327,47.893 50.192,47.976C50.056,48.059 49.946,48.167 49.859,48.3C49.772,48.432 49.709,48.583 49.669,48.751C49.628,48.919 49.609,49.089 49.609,49.26C49.609,49.431 49.628,49.6 49.669,49.768Z" style="fill:rgb(2,2,3);fill-rule:nonzero;"/>
                    <path d="M53.12,46.987L53.519,46.987L53.519,46.341L53.12,46.341L53.12,46.987ZM53.12,50.91L53.519,50.91L53.519,47.608L53.12,47.608L53.12,50.91Z" style="fill:rgb(2,2,3);fill-rule:nonzero;"/>
                    <path d="M54.707,49.819C54.747,49.975 54.812,50.115 54.901,50.239C54.989,50.362 55.101,50.465 55.236,50.545C55.372,50.626 55.534,50.667 55.725,50.667C56.016,50.667 56.244,50.59 56.409,50.437C56.574,50.283 56.688,50.079 56.751,49.822L57.151,49.822C57.066,50.198 56.911,50.487 56.685,50.692C56.459,50.897 56.139,51 55.725,51C55.467,51 55.244,50.954 55.056,50.862C54.868,50.77 54.715,50.644 54.596,50.484C54.478,50.324 54.39,50.139 54.333,49.928C54.276,49.716 54.248,49.494 54.248,49.26C54.248,49.042 54.276,48.828 54.333,48.619C54.39,48.41 54.478,48.224 54.596,48.059C54.715,47.895 54.868,47.763 55.056,47.663C55.244,47.562 55.467,47.512 55.725,47.512C55.987,47.512 56.21,47.565 56.396,47.672C56.582,47.779 56.733,47.918 56.85,48.091C56.966,48.264 57.049,48.463 57.1,48.686C57.151,48.91 57.172,49.138 57.163,49.368L54.647,49.368C54.647,49.513 54.667,49.663 54.707,49.819ZM56.685,48.587C56.636,48.446 56.568,48.321 56.479,48.213C56.39,48.104 56.282,48.017 56.156,47.95C56.029,47.885 55.885,47.851 55.725,47.851C55.56,47.851 55.414,47.885 55.287,47.95C55.16,48.017 55.053,48.104 54.964,48.213C54.875,48.321 54.804,48.447 54.752,48.59C54.699,48.733 54.664,48.879 54.647,49.029L56.764,49.029C56.76,48.875 56.733,48.728 56.685,48.587Z" style="fill:rgb(2,2,3);fill-rule:nonzero;"/>
                    <path d="M58.197,47.608L58.197,48.382L58.21,48.382C58.311,48.114 58.468,47.907 58.682,47.762C58.895,47.617 59.15,47.55 59.446,47.564L59.446,47.967C59.264,47.958 59.099,47.982 58.951,48.04C58.803,48.098 58.675,48.18 58.568,48.286C58.46,48.393 58.376,48.52 58.317,48.667C58.258,48.814 58.228,48.975 58.228,49.15L58.228,50.91L57.829,50.91L57.829,47.608L58.197,47.608Z" style="fill:rgb(2,2,3);fill-rule:nonzero;"/>
                    <path d="M60.133,49.819C60.173,49.975 60.238,50.115 60.327,50.239C60.415,50.362 60.527,50.465 60.662,50.545C60.798,50.626 60.96,50.667 61.151,50.667C61.442,50.667 61.67,50.59 61.835,50.437C62,50.283 62.114,50.079 62.177,49.822L62.577,49.822C62.492,50.198 62.337,50.487 62.111,50.692C61.885,50.897 61.565,51 61.151,51C60.893,51 60.67,50.954 60.482,50.862C60.294,50.77 60.141,50.644 60.022,50.484C59.904,50.324 59.816,50.139 59.759,49.928C59.702,49.716 59.674,49.494 59.674,49.26C59.674,49.042 59.702,48.828 59.759,48.619C59.816,48.41 59.904,48.224 60.022,48.059C60.141,47.895 60.294,47.763 60.482,47.663C60.67,47.562 60.893,47.512 61.151,47.512C61.413,47.512 61.636,47.565 61.822,47.672C62.008,47.779 62.159,47.918 62.276,48.091C62.392,48.264 62.475,48.463 62.526,48.686C62.577,48.91 62.598,49.138 62.589,49.368L60.073,49.368C60.073,49.513 60.093,49.663 60.133,49.819ZM62.111,48.587C62.062,48.446 61.994,48.321 61.905,48.213C61.816,48.104 61.708,48.017 61.582,47.95C61.455,47.885 61.311,47.851 61.151,47.851C60.986,47.851 60.84,47.885 60.713,47.95C60.586,48.017 60.479,48.104 60.39,48.213C60.301,48.321 60.23,48.447 60.178,48.59C60.125,48.733 60.09,48.879 60.073,49.029L62.19,49.029C62.186,48.875 62.159,48.728 62.111,48.587Z" style="fill:rgb(2,2,3);fill-rule:nonzero;"/>
                    <path d="M63.648,47.608L63.648,48.178L63.661,48.178C63.736,47.977 63.872,47.816 64.066,47.695C64.26,47.573 64.474,47.512 64.706,47.512C64.934,47.512 65.126,47.542 65.28,47.602C65.434,47.661 65.558,47.746 65.651,47.854C65.743,47.964 65.809,48.096 65.847,48.254C65.885,48.412 65.904,48.589 65.904,48.785L65.904,50.91L65.504,50.91L65.504,48.849C65.504,48.709 65.491,48.578 65.467,48.456C65.442,48.335 65.397,48.229 65.334,48.139C65.269,48.05 65.184,47.979 65.077,47.929C64.969,47.877 64.835,47.851 64.675,47.851C64.514,47.851 64.371,47.88 64.247,47.938C64.122,47.996 64.016,48.075 63.93,48.175C63.843,48.275 63.775,48.394 63.727,48.533C63.678,48.671 63.652,48.822 63.648,48.984L63.648,50.91L63.249,50.91L63.249,47.608L63.648,47.608Z" style="fill:rgb(2,2,3);fill-rule:nonzero;"/>
                    <path d="M69.295,50.91L69.295,50.283L69.282,50.283C69.24,50.39 69.178,50.489 69.096,50.578C69.013,50.667 68.919,50.743 68.814,50.805C68.708,50.867 68.595,50.915 68.474,50.949C68.354,50.983 68.234,51 68.116,51C67.867,51 67.65,50.954 67.467,50.863C67.283,50.77 67.13,50.645 67.007,50.485C66.885,50.324 66.794,50.139 66.735,49.928C66.675,49.717 66.646,49.494 66.646,49.26C66.646,49.026 66.675,48.802 66.735,48.59C66.794,48.38 66.885,48.194 67.007,48.034C67.13,47.874 67.283,47.747 67.467,47.653C67.65,47.559 67.867,47.512 68.116,47.512C68.239,47.512 68.358,47.527 68.474,47.557C68.591,47.587 68.699,47.633 68.801,47.695C68.902,47.757 68.992,47.833 69.07,47.922C69.148,48.012 69.209,48.116 69.251,48.236L69.264,48.236L69.264,46.342L69.663,46.342L69.663,50.91L69.295,50.91ZM67.105,49.768C67.145,49.937 67.209,50.087 67.296,50.22C67.382,50.352 67.493,50.459 67.628,50.542C67.764,50.625 67.926,50.667 68.116,50.667C68.328,50.667 68.506,50.625 68.652,50.542C68.798,50.459 68.916,50.352 69.007,50.22C69.098,50.087 69.163,49.937 69.204,49.768C69.243,49.6 69.264,49.431 69.264,49.26C69.264,49.089 69.243,48.919 69.204,48.751C69.163,48.583 69.098,48.432 69.007,48.3C68.916,48.167 68.798,48.059 68.652,47.976C68.506,47.893 68.328,47.852 68.116,47.852C67.926,47.852 67.764,47.893 67.628,47.976C67.493,48.059 67.382,48.167 67.296,48.3C67.209,48.432 67.145,48.583 67.105,48.751C67.065,48.919 67.045,49.089 67.045,49.26C67.045,49.431 67.065,49.6 67.105,49.768Z" style="fill:rgb(2,2,3);fill-rule:nonzero;"/>
                    <path d="M70.845,49.819C70.885,49.975 70.949,50.115 71.038,50.239C71.127,50.362 71.239,50.465 71.374,50.545C71.509,50.626 71.672,50.667 71.862,50.667C72.154,50.667 72.382,50.59 72.547,50.437C72.711,50.283 72.826,50.079 72.889,49.822L73.288,49.822C73.203,50.198 73.048,50.487 72.822,50.692C72.596,50.897 72.276,51 71.862,51C71.604,51 71.381,50.954 71.193,50.862C71.005,50.77 70.852,50.644 70.734,50.484C70.615,50.324 70.528,50.139 70.471,49.928C70.414,49.716 70.385,49.494 70.385,49.26C70.385,49.042 70.414,48.828 70.471,48.619C70.528,48.41 70.615,48.224 70.734,48.059C70.852,47.895 71.005,47.763 71.193,47.663C71.381,47.562 71.604,47.512 71.862,47.512C72.124,47.512 72.348,47.565 72.534,47.672C72.72,47.779 72.871,47.918 72.987,48.091C73.103,48.264 73.187,48.463 73.238,48.686C73.288,48.91 73.309,49.138 73.301,49.368L70.784,49.368C70.784,49.513 70.805,49.663 70.845,49.819ZM72.822,48.587C72.774,48.446 72.705,48.321 72.616,48.213C72.528,48.104 72.42,48.017 72.293,47.95C72.166,47.885 72.023,47.851 71.862,47.851C71.697,47.851 71.552,47.885 71.425,47.95C71.298,48.017 71.19,48.104 71.101,48.213C71.013,48.321 70.942,48.447 70.889,48.59C70.836,48.733 70.801,48.879 70.784,49.029L72.902,49.029C72.897,48.875 72.871,48.728 72.822,48.587Z" style="fill:rgb(2,2,3);fill-rule:nonzero;"/>
                    <path d="M74.359,47.608L74.359,48.178L74.372,48.178C74.448,47.977 74.583,47.816 74.777,47.695C74.972,47.573 75.185,47.512 75.418,47.512C75.646,47.512 75.837,47.542 75.991,47.602C76.145,47.661 76.269,47.746 76.362,47.854C76.455,47.964 76.521,48.096 76.559,48.254C76.597,48.412 76.616,48.589 76.616,48.785L76.616,50.91L76.216,50.91L76.216,48.849C76.216,48.709 76.204,48.578 76.178,48.456C76.153,48.335 76.109,48.229 76.045,48.139C75.982,48.05 75.896,47.979 75.788,47.929C75.681,47.877 75.547,47.851 75.386,47.851C75.225,47.851 75.083,47.88 74.958,47.938C74.834,47.996 74.728,48.075 74.641,48.175C74.555,48.275 74.487,48.394 74.439,48.533C74.39,48.671 74.363,48.822 74.359,48.984L74.359,50.91L73.96,50.91L73.96,47.608L74.359,47.608Z" style="fill:rgb(2,2,3);fill-rule:nonzero;"/>
                    <path d="M77.864,47.608L77.864,48.382L77.877,48.382C77.978,48.114 78.136,47.907 78.349,47.762C78.563,47.617 78.817,47.55 79.113,47.564L79.113,47.967C78.931,47.958 78.766,47.982 78.619,48.04C78.471,48.098 78.343,48.18 78.235,48.286C78.127,48.393 78.044,48.52 77.985,48.667C77.926,48.814 77.896,48.975 77.896,49.15L77.896,50.91L77.497,50.91L77.497,47.608L77.864,47.608Z" style="fill:rgb(2,2,3);fill-rule:nonzero;"/>
                    <path d="M79.703,48.12C79.77,47.979 79.862,47.864 79.979,47.775C80.095,47.685 80.231,47.619 80.387,47.576C80.543,47.533 80.717,47.512 80.907,47.512C81.051,47.512 81.194,47.526 81.338,47.553C81.482,47.582 81.611,47.634 81.725,47.711C81.839,47.787 81.932,47.895 82.003,48.034C82.075,48.172 82.111,48.353 82.111,48.574L82.111,50.328C82.111,50.49 82.19,50.571 82.346,50.571C82.392,50.571 82.435,50.562 82.473,50.545L82.473,50.884C82.426,50.893 82.385,50.899 82.349,50.904C82.313,50.908 82.268,50.91 82.213,50.91C82.111,50.91 82.03,50.896 81.969,50.868C81.908,50.84 81.86,50.801 81.826,50.75C81.792,50.699 81.77,50.638 81.76,50.568C81.749,50.497 81.744,50.419 81.744,50.334L81.731,50.334C81.659,50.44 81.586,50.536 81.513,50.618C81.438,50.702 81.356,50.772 81.265,50.827C81.174,50.883 81.071,50.925 80.955,50.954C80.838,50.985 80.7,51 80.54,51C80.387,51 80.245,50.981 80.112,50.945C79.979,50.909 79.862,50.851 79.763,50.772C79.664,50.693 79.586,50.593 79.528,50.472C79.471,50.35 79.443,50.206 79.443,50.04C79.443,49.809 79.493,49.629 79.595,49.5C79.697,49.369 79.83,49.27 79.998,49.202C80.164,49.133 80.352,49.085 80.562,49.057C80.771,49.03 80.983,49.003 81.199,48.977C81.283,48.97 81.357,48.958 81.42,48.945C81.484,48.933 81.537,48.91 81.579,48.878C81.621,48.846 81.654,48.802 81.677,48.747C81.701,48.692 81.712,48.619 81.712,48.53C81.712,48.393 81.69,48.282 81.646,48.193C81.601,48.107 81.54,48.037 81.462,47.985C81.383,47.935 81.293,47.9 81.189,47.88C81.085,47.861 80.975,47.851 80.856,47.851C80.603,47.851 80.396,47.912 80.235,48.034C80.074,48.155 79.99,48.35 79.982,48.619L79.582,48.619C79.595,48.428 79.635,48.262 79.703,48.12ZM81.699,49.106C81.674,49.152 81.625,49.187 81.554,49.209C81.482,49.23 81.418,49.244 81.364,49.252C81.194,49.283 81.02,49.309 80.841,49.333C80.661,49.356 80.497,49.391 80.349,49.438C80.201,49.485 80.08,49.552 79.985,49.64C79.89,49.727 79.842,49.852 79.842,50.015C79.842,50.116 79.862,50.207 79.902,50.286C79.943,50.365 79.996,50.433 80.064,50.49C80.132,50.548 80.21,50.592 80.299,50.622C80.387,50.652 80.478,50.667 80.571,50.667C80.723,50.667 80.869,50.643 81.008,50.597C81.148,50.55 81.269,50.481 81.373,50.391C81.477,50.302 81.559,50.193 81.62,50.066C81.681,49.937 81.712,49.792 81.712,49.63L81.712,49.106L81.699,49.106Z" style="fill:rgb(2,2,3);fill-rule:nonzero;"/>
                    <path d="M84.336,47.608L84.336,47.947L83.67,47.947L83.67,50.174C83.67,50.306 83.689,50.41 83.725,50.484C83.76,50.559 83.85,50.601 83.994,50.609C84.108,50.609 84.222,50.603 84.336,50.59L84.336,50.929C84.277,50.929 84.218,50.931 84.159,50.937C84.099,50.94 84.04,50.942 83.981,50.942C83.715,50.942 83.529,50.89 83.423,50.785C83.318,50.68 83.267,50.487 83.271,50.206L83.271,47.947L82.701,47.947L82.701,47.608L83.271,47.608L83.271,46.616L83.67,46.616L83.67,47.608L84.336,47.608Z" style="fill:rgb(2,2,3);fill-rule:nonzero;"/>
                    <path d="M89.439,50.91L89.439,50.283L89.425,50.283C89.384,50.39 89.322,50.489 89.24,50.578C89.156,50.667 89.062,50.743 88.956,50.805C88.851,50.867 88.738,50.915 88.618,50.949C88.497,50.983 88.378,51 88.26,51C88.01,51 87.794,50.954 87.61,50.863C87.426,50.77 87.273,50.645 87.15,50.485C87.028,50.324 86.937,50.139 86.878,49.928C86.819,49.717 86.789,49.494 86.789,49.26C86.789,49.026 86.819,48.802 86.878,48.59C86.937,48.38 87.028,48.194 87.15,48.034C87.273,47.874 87.426,47.747 87.61,47.653C87.794,47.559 88.01,47.512 88.26,47.512C88.382,47.512 88.501,47.527 88.618,47.557C88.734,47.587 88.843,47.633 88.944,47.695C89.046,47.757 89.136,47.833 89.213,47.922C89.292,48.012 89.353,48.116 89.394,48.236L89.407,48.236L89.407,46.342L89.806,46.342L89.806,50.91L89.439,50.91ZM87.248,49.768C87.289,49.937 87.352,50.087 87.439,50.22C87.525,50.352 87.636,50.459 87.771,50.542C87.907,50.625 88.069,50.667 88.26,50.667C88.471,50.667 88.649,50.625 88.796,50.542C88.941,50.459 89.059,50.352 89.15,50.22C89.241,50.087 89.306,49.937 89.346,49.768C89.387,49.6 89.407,49.431 89.407,49.26C89.407,49.089 89.387,48.919 89.346,48.751C89.306,48.583 89.241,48.432 89.15,48.3C89.059,48.167 88.941,48.059 88.796,47.976C88.649,47.893 88.471,47.852 88.26,47.852C88.069,47.852 87.907,47.893 87.771,47.976C87.636,48.059 87.525,48.167 87.439,48.3C87.352,48.432 87.289,48.583 87.248,48.751C87.208,48.919 87.188,49.089 87.188,49.26C87.188,49.431 87.208,49.6 87.248,49.768Z" style="fill:rgb(2,2,3);fill-rule:nonzero;"/>
                    <path d="M90.987,49.819C91.027,49.975 91.092,50.115 91.181,50.239C91.27,50.362 91.382,50.465 91.516,50.545C91.652,50.626 91.815,50.667 92.005,50.667C92.296,50.667 92.525,50.59 92.689,50.437C92.854,50.283 92.968,50.079 93.031,49.822L93.431,49.822C93.346,50.198 93.191,50.487 92.965,50.692C92.739,50.897 92.419,51 92.005,51C91.747,51 91.524,50.954 91.336,50.862C91.148,50.77 90.995,50.644 90.877,50.484C90.758,50.324 90.671,50.139 90.614,49.928C90.556,49.716 90.528,49.494 90.528,49.26C90.528,49.042 90.556,48.828 90.614,48.619C90.671,48.41 90.758,48.224 90.877,48.059C90.995,47.895 91.148,47.763 91.336,47.663C91.524,47.562 91.747,47.512 92.005,47.512C92.267,47.512 92.491,47.565 92.677,47.672C92.863,47.779 93.014,47.918 93.13,48.091C93.246,48.264 93.329,48.463 93.38,48.686C93.431,48.91 93.452,49.138 93.444,49.368L90.928,49.368C90.928,49.513 90.947,49.663 90.987,49.819ZM92.965,48.587C92.917,48.446 92.848,48.321 92.759,48.213C92.67,48.104 92.563,48.017 92.436,47.95C92.309,47.885 92.166,47.851 92.005,47.851C91.84,47.851 91.694,47.885 91.568,47.95C91.441,48.017 91.333,48.104 91.244,48.213C91.156,48.321 91.085,48.447 91.032,48.59C90.979,48.733 90.944,48.879 90.928,49.029L93.045,49.029C93.04,48.875 93.014,48.728 92.965,48.587Z" style="fill:rgb(2,2,3);fill-rule:nonzero;"/>
                    <path d="M94.478,47.608L94.478,48.382L94.49,48.382C94.592,48.114 94.749,47.907 94.962,47.762C95.176,47.617 95.43,47.55 95.726,47.564L95.726,47.967C95.545,47.958 95.38,47.982 95.232,48.04C95.084,48.098 94.956,48.18 94.848,48.286C94.741,48.393 94.657,48.52 94.598,48.667C94.539,48.814 94.509,48.975 94.509,49.15L94.509,50.91L94.11,50.91L94.11,47.608L94.478,47.608Z" style="fill:rgb(2,2,3);fill-rule:nonzero;"/>
                    <path d="M98.629,46.341L98.629,48.324L101.316,48.324L101.316,46.341L101.747,46.341L101.747,50.91L101.316,50.91L101.316,48.696L98.629,48.696L98.629,50.91L98.198,50.91L98.198,46.341L98.629,46.341Z" style="fill:rgb(2,2,3);fill-rule:nonzero;"/>
                    <path d="M104.755,47.653C104.947,47.746 105.109,47.873 105.24,48.032C105.371,48.19 105.47,48.373 105.538,48.584C105.605,48.795 105.639,49.02 105.639,49.26C105.639,49.498 105.605,49.723 105.538,49.934C105.47,50.145 105.371,50.33 105.24,50.487C105.109,50.645 104.947,50.77 104.755,50.862C104.563,50.954 104.342,51 104.092,51C103.843,51 103.623,50.954 103.43,50.862C103.238,50.77 103.076,50.645 102.946,50.487C102.814,50.33 102.715,50.145 102.648,49.934C102.58,49.723 102.546,49.498 102.546,49.26C102.546,49.02 102.58,48.795 102.648,48.584C102.715,48.373 102.814,48.19 102.946,48.032C103.076,47.873 103.238,47.746 103.43,47.653C103.623,47.559 103.843,47.512 104.092,47.512C104.342,47.512 104.563,47.559 104.755,47.653ZM103.592,47.973C103.448,48.054 103.329,48.16 103.234,48.292C103.138,48.425 103.067,48.575 103.018,48.744C102.97,48.913 102.946,49.085 102.946,49.26C102.946,49.434 102.97,49.605 103.018,49.774C103.067,49.943 103.138,50.093 103.234,50.225C103.329,50.358 103.448,50.465 103.592,50.545C103.736,50.626 103.903,50.667 104.092,50.667C104.283,50.667 104.45,50.626 104.594,50.545C104.737,50.465 104.857,50.358 104.951,50.225C105.046,50.093 105.118,49.943 105.167,49.774C105.216,49.605 105.24,49.434 105.24,49.26C105.24,49.085 105.216,48.913 105.167,48.744C105.118,48.575 105.046,48.425 104.951,48.292C104.857,48.16 104.737,48.054 104.594,47.973C104.45,47.892 104.283,47.851 104.092,47.851C103.903,47.851 103.736,47.892 103.592,47.973Z" style="fill:rgb(2,2,3);fill-rule:nonzero;"/>
                    <path d="M108.364,48.063C108.216,47.921 108.009,47.851 107.743,47.851C107.553,47.851 107.386,47.892 107.242,47.973C107.098,48.054 106.979,48.16 106.884,48.292C106.789,48.425 106.718,48.575 106.669,48.744C106.62,48.913 106.596,49.085 106.596,49.26C106.596,49.434 106.62,49.605 106.669,49.774C106.718,49.943 106.789,50.093 106.884,50.225C106.979,50.358 107.098,50.465 107.242,50.545C107.386,50.626 107.553,50.667 107.743,50.667C107.866,50.667 107.982,50.643 108.092,50.597C108.202,50.55 108.298,50.484 108.384,50.401C108.468,50.318 108.538,50.22 108.593,50.105C108.647,49.989 108.681,49.862 108.694,49.726L109.093,49.726C109.038,50.127 108.893,50.44 108.656,50.664C108.419,50.887 108.115,51 107.743,51C107.494,51 107.273,50.954 107.081,50.862C106.889,50.77 106.727,50.645 106.596,50.487C106.465,50.329 106.366,50.145 106.298,49.934C106.23,49.723 106.197,49.498 106.197,49.26C106.197,49.02 106.23,48.795 106.298,48.584C106.366,48.373 106.465,48.188 106.596,48.032C106.727,47.873 106.889,47.746 107.081,47.653C107.273,47.559 107.494,47.512 107.743,47.512C108.094,47.512 108.391,47.606 108.634,47.793C108.876,47.981 109.021,48.265 109.068,48.645L108.668,48.645C108.613,48.397 108.512,48.203 108.364,48.063Z" style="fill:rgb(2,2,3);fill-rule:nonzero;"/>
                    <path d="M110.171,46.341L110.171,48.178L110.184,48.178C110.26,47.977 110.395,47.816 110.589,47.695C110.784,47.573 110.997,47.512 111.229,47.512C111.457,47.512 111.649,47.542 111.803,47.602C111.957,47.661 112.081,47.746 112.174,47.854C112.267,47.964 112.333,48.096 112.37,48.254C112.408,48.412 112.428,48.589 112.428,48.785L112.428,50.91L112.028,50.91L112.028,48.849C112.028,48.709 112.015,48.577 111.991,48.456C111.965,48.335 111.92,48.229 111.857,48.139C111.794,48.05 111.708,47.979 111.601,47.928C111.492,47.877 111.358,47.851 111.198,47.851C111.037,47.851 110.895,47.88 110.77,47.938C110.645,47.996 110.54,48.074 110.453,48.174C110.366,48.275 110.299,48.394 110.25,48.533C110.202,48.671 110.175,48.822 110.171,48.984L110.171,50.91L109.772,50.91L109.772,46.341L110.171,46.341Z" style="fill:rgb(2,2,3);fill-rule:nonzero;"/>
                    <path d="M115.191,48.251C115.144,48.16 115.082,48.084 115.004,48.025C114.926,47.965 114.836,47.921 114.735,47.893C114.633,47.865 114.525,47.851 114.411,47.851C114.322,47.851 114.233,47.861 114.142,47.88C114.051,47.9 113.967,47.932 113.891,47.976C113.816,48.021 113.754,48.079 113.708,48.152C113.661,48.225 113.638,48.315 113.638,48.421C113.638,48.511 113.66,48.586 113.705,48.648C113.749,48.71 113.805,48.762 113.873,48.805C113.94,48.847 114.014,48.883 114.094,48.91C114.175,48.939 114.249,48.961 114.316,48.978L114.849,49.1C114.963,49.117 115.076,49.147 115.187,49.192C115.3,49.237 115.399,49.296 115.485,49.368C115.572,49.441 115.643,49.53 115.698,49.637C115.753,49.743 115.78,49.87 115.78,50.015C115.78,50.193 115.74,50.346 115.66,50.472C115.58,50.598 115.477,50.7 115.352,50.779C115.228,50.858 115.088,50.915 114.931,50.948C114.775,50.983 114.62,51 114.469,51C114.084,51 113.772,50.908 113.533,50.724C113.295,50.541 113.159,50.247 113.125,49.842L113.524,49.842C113.541,50.115 113.639,50.32 113.819,50.459C113.998,50.598 114.221,50.667 114.487,50.667C114.585,50.667 114.684,50.656 114.788,50.635C114.892,50.613 114.988,50.577 115.077,50.526C115.166,50.475 115.238,50.41 115.296,50.331C115.352,50.252 115.381,50.155 115.381,50.04C115.381,49.942 115.361,49.86 115.32,49.793C115.281,49.728 115.227,49.672 115.16,49.628C115.091,49.582 115.014,49.545 114.928,49.515C114.842,49.485 114.753,49.46 114.665,49.439L114.151,49.323C114.021,49.289 113.9,49.25 113.79,49.205C113.68,49.16 113.584,49.105 113.501,49.039C113.419,48.972 113.355,48.891 113.309,48.796C113.262,48.7 113.238,48.581 113.238,48.44C113.238,48.275 113.275,48.131 113.35,48.012C113.423,47.892 113.52,47.796 113.638,47.723C113.756,47.651 113.888,47.597 114.035,47.564C114.18,47.53 114.325,47.512 114.469,47.512C114.633,47.512 114.787,47.533 114.928,47.576C115.069,47.619 115.194,47.685 115.302,47.775C115.409,47.865 115.495,47.976 115.559,48.108C115.622,48.24 115.658,48.396 115.666,48.575L115.267,48.575C115.262,48.451 115.238,48.343 115.191,48.251Z" style="fill:rgb(2,2,3);fill-rule:nonzero;"/>
                    <path d="M118.487,48.063C118.339,47.921 118.132,47.851 117.865,47.851C117.676,47.851 117.509,47.892 117.365,47.973C117.221,48.054 117.102,48.16 117.007,48.292C116.911,48.425 116.84,48.575 116.791,48.744C116.743,48.913 116.719,49.085 116.719,49.26C116.719,49.434 116.743,49.605 116.791,49.774C116.84,49.943 116.911,50.093 117.007,50.225C117.102,50.358 117.221,50.465 117.365,50.545C117.509,50.626 117.676,50.667 117.865,50.667C117.988,50.667 118.105,50.643 118.214,50.597C118.324,50.55 118.421,50.484 118.506,50.401C118.59,50.318 118.66,50.22 118.715,50.105C118.77,49.989 118.804,49.862 118.816,49.726L119.216,49.726C119.161,50.127 119.015,50.44 118.778,50.664C118.542,50.887 118.238,51 117.865,51C117.616,51 117.396,50.954 117.203,50.862C117.011,50.77 116.85,50.645 116.719,50.487C116.587,50.329 116.488,50.145 116.421,49.934C116.353,49.723 116.32,49.498 116.32,49.26C116.32,49.02 116.353,48.795 116.421,48.584C116.488,48.373 116.587,48.188 116.719,48.032C116.85,47.873 117.011,47.746 117.203,47.653C117.396,47.559 117.616,47.512 117.865,47.512C118.217,47.512 118.513,47.606 118.756,47.793C118.999,47.981 119.144,48.265 119.191,48.645L118.791,48.645C118.736,48.397 118.635,48.203 118.487,48.063Z" style="fill:rgb(2,2,3);fill-rule:nonzero;"/>
                    <path d="M120.294,46.341L120.294,48.178L120.307,48.178C120.383,47.977 120.518,47.816 120.712,47.695C120.907,47.573 121.12,47.512 121.352,47.512C121.581,47.512 121.772,47.542 121.926,47.602C122.08,47.661 122.204,47.746 122.297,47.854C122.39,47.964 122.456,48.096 122.494,48.254C122.531,48.412 122.551,48.589 122.551,48.785L122.551,50.91L122.152,50.91L122.152,48.849C122.152,48.709 122.138,48.577 122.114,48.456C122.088,48.335 122.043,48.229 121.98,48.139C121.917,48.05 121.831,47.979 121.724,47.928C121.615,47.877 121.481,47.851 121.321,47.851C121.16,47.851 121.018,47.88 120.893,47.938C120.768,47.996 120.663,48.074 120.576,48.174C120.49,48.275 120.422,48.394 120.373,48.533C120.325,48.671 120.298,48.822 120.294,48.984L120.294,50.91L119.895,50.91L119.895,46.341L120.294,46.341Z" style="fill:rgb(2,2,3);fill-rule:nonzero;"/>
                    <path d="M125.714,50.91L125.714,50.315L125.701,50.315C125.595,50.537 125.442,50.706 125.241,50.824C125.041,50.941 124.818,51 124.572,51C124.365,51 124.189,50.971 124.043,50.913C123.898,50.856 123.779,50.774 123.688,50.667C123.598,50.56 123.531,50.431 123.488,50.277C123.447,50.123 123.425,49.949 123.425,49.752L123.425,47.609L123.824,47.609L123.824,49.758C123.833,50.057 123.902,50.283 124.031,50.437C124.159,50.59 124.382,50.667 124.699,50.667C124.873,50.667 125.02,50.63 125.143,50.555C125.266,50.481 125.367,50.381 125.448,50.257C125.527,50.134 125.587,49.992 125.625,49.832C125.663,49.672 125.682,49.51 125.682,49.343L125.682,47.609L126.081,47.609L126.081,50.91L125.714,50.91Z" style="fill:rgb(2,2,3);fill-rule:nonzero;"/>
                    <rect x="126.969" y="46.341" width="0.399" height="4.569" style="fill:rgb(2,2,3);"/>
                    <path d="M128.554,49.819C128.595,49.975 128.66,50.115 128.748,50.239C128.837,50.362 128.949,50.465 129.084,50.545C129.218,50.626 129.382,50.667 129.572,50.667C129.864,50.667 130.091,50.59 130.257,50.437C130.422,50.283 130.535,50.079 130.599,49.822L130.998,49.822C130.914,50.198 130.757,50.487 130.532,50.692C130.306,50.897 129.985,51 129.572,51C129.315,51 129.091,50.954 128.904,50.862C128.716,50.77 128.562,50.644 128.444,50.484C128.326,50.324 128.238,50.139 128.181,49.928C128.123,49.716 128.095,49.494 128.095,49.26C128.095,49.042 128.123,48.828 128.181,48.619C128.238,48.41 128.326,48.224 128.444,48.059C128.562,47.895 128.716,47.763 128.904,47.663C129.091,47.562 129.315,47.512 129.572,47.512C129.835,47.512 130.058,47.565 130.244,47.672C130.429,47.779 130.58,47.918 130.697,48.091C130.813,48.264 130.897,48.463 130.948,48.686C130.998,48.91 131.02,49.138 131.011,49.368L128.494,49.368C128.494,49.513 128.515,49.663 128.554,49.819ZM130.532,48.587C130.483,48.446 130.416,48.321 130.326,48.213C130.238,48.104 130.13,48.017 130.003,47.95C129.876,47.885 129.733,47.851 129.572,47.851C129.407,47.851 129.261,47.885 129.134,47.95C129.007,48.017 128.901,48.104 128.812,48.213C128.723,48.321 128.651,48.447 128.6,48.59C128.546,48.733 128.511,48.879 128.494,49.029L130.612,49.029C130.606,48.875 130.58,48.728 130.532,48.587Z" style="fill:rgb(2,2,3);fill-rule:nonzero;"/>
                    <path d="M134.073,46.341L134.073,48.324L136.76,48.324L136.76,46.341L137.191,46.341L137.191,50.91L136.76,50.91L136.76,48.696L134.073,48.696L134.073,50.91L133.642,50.91L133.642,46.341L134.073,46.341Z" style="fill:rgb(2,2,3);fill-rule:nonzero;"/>
                    <path d="M138.237,48.12C138.305,47.979 138.397,47.864 138.513,47.775C138.63,47.685 138.766,47.619 138.922,47.576C139.078,47.533 139.252,47.512 139.441,47.512C139.585,47.512 139.729,47.526 139.873,47.553C140.016,47.582 140.145,47.634 140.259,47.711C140.374,47.787 140.466,47.895 140.538,48.034C140.61,48.172 140.646,48.353 140.646,48.574L140.646,50.328C140.646,50.49 140.724,50.571 140.88,50.571C140.927,50.571 140.969,50.562 141.007,50.545L141.007,50.884C140.961,50.893 140.92,50.899 140.883,50.904C140.848,50.908 140.802,50.91 140.747,50.91C140.646,50.91 140.565,50.896 140.504,50.868C140.442,50.84 140.394,50.801 140.36,50.75C140.327,50.699 140.305,50.638 140.294,50.568C140.284,50.497 140.278,50.419 140.278,50.334L140.265,50.334C140.194,50.44 140.121,50.536 140.047,50.618C139.973,50.702 139.891,50.772 139.799,50.827C139.709,50.883 139.605,50.925 139.489,50.954C139.373,50.985 139.235,51 139.074,51C138.922,51 138.779,50.981 138.646,50.945C138.513,50.909 138.397,50.851 138.298,50.772C138.198,50.693 138.12,50.593 138.063,50.472C138.006,50.35 137.977,50.206 137.977,50.04C137.977,49.809 138.028,49.629 138.13,49.5C138.231,49.369 138.365,49.27 138.532,49.202C138.699,49.133 138.887,49.085 139.096,49.057C139.305,49.03 139.518,49.003 139.733,48.977C139.818,48.97 139.892,48.958 139.955,48.945C140.018,48.933 140.071,48.91 140.114,48.878C140.155,48.846 140.189,48.802 140.212,48.747C140.235,48.692 140.247,48.619 140.247,48.53C140.247,48.393 140.224,48.282 140.18,48.193C140.136,48.107 140.074,48.037 139.996,47.985C139.918,47.935 139.827,47.9 139.724,47.88C139.62,47.861 139.509,47.851 139.391,47.851C139.137,47.851 138.931,47.912 138.77,48.034C138.609,48.155 138.524,48.35 138.516,48.619L138.117,48.619C138.13,48.428 138.17,48.262 138.237,48.12ZM140.234,49.106C140.209,49.152 140.16,49.187 140.088,49.209C140.016,49.23 139.953,49.244 139.898,49.252C139.729,49.283 139.555,49.309 139.375,49.333C139.195,49.356 139.032,49.391 138.884,49.438C138.736,49.485 138.614,49.552 138.52,49.64C138.425,49.727 138.377,49.852 138.377,50.015C138.377,50.116 138.397,50.207 138.437,50.286C138.477,50.365 138.531,50.433 138.599,50.49C138.666,50.548 138.744,50.592 138.833,50.622C138.922,50.652 139.013,50.667 139.105,50.667C139.258,50.667 139.403,50.643 139.543,50.597C139.683,50.55 139.804,50.481 139.908,50.391C140.011,50.302 140.093,50.193 140.155,50.066C140.216,49.937 140.247,49.792 140.247,49.63L140.247,49.106L140.234,49.106Z" style="fill:rgb(2,2,3);fill-rule:nonzero;"/>
                    <path d="M141.94,47.608L141.94,48.382L141.952,48.382C142.053,48.114 142.211,47.907 142.424,47.762C142.638,47.617 142.892,47.55 143.188,47.564L143.188,47.967C143.007,47.958 142.842,47.982 142.694,48.04C142.546,48.098 142.418,48.18 142.31,48.286C142.203,48.393 142.119,48.52 142.06,48.667C142.001,48.814 141.971,48.975 141.971,49.15L141.971,50.91L141.572,50.91L141.572,47.608L141.94,47.608Z" style="fill:rgb(2,2,3);fill-rule:nonzero;"/>
                    <path d="M146.142,50.571L146.142,50.91L143.41,50.91L143.41,50.583L145.546,47.947L143.555,47.947L143.555,47.608L146.053,47.608L146.053,47.896L143.891,50.571L146.142,50.571Z" style="fill:rgb(2,2,3);fill-rule:nonzero;"/>
                    <path d="M142.162,7.58L152.279,34.893L146.103,34.893L144.056,28.811L133.939,28.811L131.816,34.893L125.83,34.893L136.061,7.58L142.162,7.58ZM142.503,24.335L139.093,14.312L139.016,14.312L135.492,24.335L142.503,24.335Z" style="fill-rule:nonzero;"/>
                </g>
            </g>
        </g>
    </g>
</svg>
