<svg xmlns="http://www.w3.org/2000/svg" viewBox="0 0 676 521"><path d="M177.73,455.39,165.88,483.6,152,444.49h5.21l9,25.72a6.49,6.49,0,0,1,.3,1.84,6.42,6.42,0,0,1,.34-1.84l10.86-26.72,11.2,26.72a6.08,6.08,0,0,1,.35,1.84,6.2,6.2,0,0,1,.3-1.84l8.72-25.72h5.11l-13.58,39.16Z"/><path d="M213,482V444.53h20.47v4.22H217.73v11.1h12.64v4.27H217.73V477.8l17.3-.05V482Z"/><path d="M263.33,482V444.49h4.76V482Z"/><path d="M287,455.05l.05,27h-4.76l.05-38.52,28.36,28.56-.05-27.56h4.76l-.05,38.86Z"/><path d="M367,467.64v-4.32h15c-.1,13.59-8.82,19.44-17.89,19.44-11.06,0-20-8.68-20-19.39,0-10.95,8.52-19.63,20-19.63,8.87,0,13.88,4.86,14.12,5.16l-2.48,3.52a17.74,17.74,0,0,0-11.74-4.37c-9.22,0-14.88,6.75-14.88,15.42a15.12,15.12,0,0,0,15.27,15c6.45,0,11.95-4.06,12.55-10.85Z"/><path d="M418.87,482l-4-8.82H397L392.94,482h-5.25l18.19-38.86L424.12,482Zm-12.15-26.62a21.33,21.33,0,0,1-.84-2.13,18.84,18.84,0,0,1-.79,2.13l-6.2,13.49h14Z"/><path d="M469.13,482l-2.38-22.3c-.05-.45-.05-1.49-.05-1.89-.1.3-.54,1.09-.84,1.69l-13.09,23.94-13.14-23.89c-.34-.65-.64-1.29-.84-1.79a8.08,8.08,0,0,1,0,1.94L436.56,482H431.5L436,443.44l16.22,29.06a6,6,0,0,1,.64,1.58,12.1,12.1,0,0,1,.65-1.58l16.16-29L474.14,482Z"/><path d="M486.57,482V444.53h20.48v4.22H491.33v11.1H504v4.27H491.33V477.8l17.3-.05V482Z"/><path d="M519.14,474.23a13,13,0,0,0,9.66,4.21c4.22,0,7.09-2.38,7.09-6.09,0-9.82-17.1-7.44-17.1-18.89,0-6.4,5.31-9.77,11.11-9.77a14.61,14.61,0,0,1,9.86,3.92l-2.48,3.47A10.63,10.63,0,0,0,530,448c-3.23,0-6.2,1.63-6.2,5.15,0,8.08,17.25,5.9,17.25,19.19,0,5.3-4.61,10.46-12.59,10.46-5.26,0-10.16-3-11.85-5.06Z"/><path d="M26.79,339c9.94-10.16,20.16-20.14,31-29.47,5.3-4.79,10.87-9.25,16.35-13.85,2.74-2.29,5.59-4.44,8.39-6.67s5.61-4.44,8.49-6.56c11.4-8.65,23.15-16.84,35.12-24.74,3-2,6-3.89,9.05-5.81L139.7,249c1.52-.95,3.06-1.86,4.59-2.79l9.22-5.56c3.09-1.81,6.22-3.58,9.34-5.35,50-28.29,103.45-50.42,158.51-66.72a862.14,862.14,0,0,1,168.76-31.94,839.56,839.56,0,0,1,85.67-3.17c14.27.27,28.54.85,42.76,2S647,138.08,661,140.53c-28.43.89-56.62,3-84.69,5.74s-56,6.31-83.71,10.69a1276.55,1276.55,0,0,0-163.86,36.57,1047.25,1047.25,0,0,0-156.45,59.85c-12.67,6-25.08,12.45-37.51,19-6.15,3.36-12.35,6.66-18.45,10.14-3,1.73-6.14,3.41-9.17,5.19L98.06,293C73.77,307.24,50.23,322.84,26.79,339Z"/><polygon points="545.69 45 434.45 300.52 340 89 245.4 300.87 174.44 140.5 128.51 140.5 245.22 404.28 340 192.01 434.94 404.62 591.49 45 545.69 45"/></svg>