<?xml version="1.0" encoding="UTF-8" standalone="no"?><!DOCTYPE svg PUBLIC "-//W3C//DTD SVG 1.1//EN" "http://www.w3.org/Graphics/SVG/1.1/DTD/svg11.dtd"><svg width="100%" height="100%" viewBox="0 0 2084 2084" version="1.1" xmlns="http://www.w3.org/2000/svg" xmlns:xlink="http://www.w3.org/1999/xlink" xml:space="preserve" xmlns:serif="http://www.serif.com/" style="fill-rule:evenodd;clip-rule:evenodd;stroke-linejoin:round;stroke-miterlimit:2;"><rect id="sticker" x="0" y="0" width="2083.33" height="2083.33" style="fill:none;"/><clipPath id="_clip1"><rect x="0" y="0" width="2083.33" height="2083.33"/></clipPath><g clip-path="url(#_clip1)"><g id="Layer-1" serif:id="Layer 1"><path d="M1793.12,1017.71c-0,448.198 -365.067,811.533 -815.402,811.533c-450.329,-0 -815.397,-363.335 -815.397,-811.533c0,-448.197 365.068,-811.533 815.397,-811.533c450.335,0 815.402,363.336 815.402,811.533" style="fill:#1a0317;fill-rule:nonzero;"/><path d="M1808.19,1017.71c0,456.484 -371.816,826.536 -830.476,826.536c-458.655,0 -830.471,-370.052 -830.471,-826.536c-0,-456.483 371.816,-826.536 830.471,-826.536c458.66,0 830.476,370.053 830.476,826.536Zm-30.149,0c0,-439.911 -358.318,-796.53 -800.327,-796.53c-442.004,0 -800.322,356.619 -800.322,796.53c0,439.912 358.318,796.53 800.322,796.53c442.009,-0 800.327,-356.618 800.327,-796.53Z"/><path d="M1333.69,1415.19c-2.368,7.103 -5.474,13.156 -9.491,17.409c-20.462,21.663 -112.703,139.839 -154.096,141.439c-50.826,1.965 -168.511,15.508 -219.463,25.352c-50.943,9.841 -152.281,-80.393 -226.762,-78.772c-65.242,1.424 -107.711,12.21 -107.711,12.21c0,-0 -203.366,203.619 -227.859,226.21c-24.493,22.596 -74.135,46.771 -120.105,32.006c-45.973,-14.764 -92.461,-72.231 -110.118,-143.829c-11.853,-48.048 -24.959,-207.606 -18.426,-279.308c7.791,-85.477 59.387,-177.603 104.293,-227.264c41.048,-45.398 178.018,-130.041 178.018,-130.041c0,-0 -7.138,-98.986 -7.441,-137.323c-0.276,-34.948 40.827,-105.957 71.495,-117.432c56.868,-21.284 208.409,-5.307 250.909,-16.179c38.986,-9.974 187.788,-162.461 237.629,-200.191c63.194,-47.842 151.101,-99.132 198.078,-104.818c47.862,-5.789 109.936,11.427 119.992,58.439c9.632,45.05 -143.746,210.439 -143.746,210.439l-19.443,147.577c22.837,-2.2 173.885,-17.769 288.455,-54.872c151.278,-48.99 345.652,-128.863 395.243,-128.231c39.336,0.503 71.257,27.834 77.549,58.361c8.902,43.177 -32.475,85.357 -98.673,123.043c65.115,-22.314 119.388,-2.69 132.48,41.408c14.982,50.474 -21.351,88.608 -52.728,113.088c-31.376,24.484 -234.678,128.093 -234.678,128.093l-19.874,160.306l-100.27,61.763l-183.257,61.117Z" style="fill:#fff;"/><path d="M1408.89,1020.96c0.024,-0.252 0.047,-0.504 0.071,-0.755c4.706,-49.908 10.226,-88.479 19.738,-117.706c15.523,-47.696 41.24,-72.291 89.21,-81.363c24.693,-4.669 43.847,-1.191 58.879,7.016c15.078,8.231 26.152,21.401 34.221,37.094c7.933,15.429 12.891,33.388 16.372,50.687c0.54,-0.322 1.113,-0.606 1.717,-0.846c-0,-0 20.896,-8.351 121.668,-57.48c1.455,-0.709 25.438,-12.886 36.354,-19.117c33.148,-18.926 59.761,-38.949 76.172,-59.822c12.822,-16.309 19.162,-32.926 15.661,-49.904c-5.32,-25.813 -32.702,-48.407 -65.964,-48.833c-14.178,-0.181 -40.703,6.843 -74.882,17.605c-83.661,26.345 -210.635,75.759 -316.499,110.042c-125.377,40.603 -294.037,55.686 -294.037,55.686c-6.587,0.587 -12.414,-4.258 -13.004,-10.814c-0.591,-6.556 4.278,-12.355 10.865,-12.943c-0,0 165.64,-14.738 288.761,-54.611c105.925,-34.303 232.974,-83.74 316.685,-110.1c37.552,-11.825 66.842,-18.914 82.418,-18.715c45.412,0.581 81.87,32.648 89.134,67.889c4.838,23.468 -2.54,46.854 -20.264,69.397c-9.335,11.874 -21.67,23.582 -36.472,35.016c45.524,0.723 79.756,23.551 90.297,59.056c16.58,55.86 -22.101,98.76 -56.826,125.852c-29.794,23.249 -213.218,117.353 -234.581,128.286c0.474,23.162 0.604,45.704 0.247,65.857c-0.696,39.269 -3.812,69.9 -8.921,80.373c-7.355,15.079 -20.416,27.994 -37.465,39.461c-23.185,15.593 -54.021,28.732 -86.005,42.704c-31.762,13.877 -161.418,64.901 -181.284,72.711c-16.404,18.053 -64.214,77.651 -105.543,113.21c-20.87,17.956 -40.85,29.508 -55.043,30.057c-50.405,1.949 -167.115,15.38 -217.645,25.143c-22.237,4.295 -53.606,-7.751 -88.046,-24.998c-45.604,-22.837 -97.686,-54.496 -140.736,-53.559c-53.4,1.165 -91.155,8.722 -101.895,11.116c-23.007,23.027 -202.836,202.953 -225.792,224.128c-26.877,24.795 -81.487,50.81 -131.931,34.609c-48.915,-15.709 -99.289,-76.156 -118.075,-152.336c-12.02,-48.723 -25.348,-210.519 -18.723,-283.228c8.026,-88.053 61.061,-183.007 107.32,-234.164c36.427,-40.288 147.164,-111.149 174.469,-128.353c-1.636,-23.482 -6.712,-98.631 -6.967,-130.94c-0.18,-22.698 15.202,-59.673 35.157,-88.124c13.931,-19.862 30.198,-35.362 44.103,-40.565c29.357,-10.987 83.115,-12.731 135.054,-12.757c49.055,-0.025 96.368,1.491 117.089,-3.81c10.833,-2.771 30.434,-17.973 54.354,-38.071c60.413,-50.757 144.027,-133.583 179.004,-160.061c64.951,-49.172 155.603,-101.321 203.885,-107.165c31.22,-3.776 67.966,1.65 94.758,17.476c19.359,11.435 33.662,28.161 38.401,50.319c1.51,7.062 0.452,16.455 -3.457,27.4c-4.737,13.263 -13.673,29.509 -25.013,46.898c-42.244,64.773 -118.191,146.713 -118.191,146.713c-4.485,4.837 -12.073,5.139 -16.933,0.675c-4.859,-4.464 -5.163,-12.016 -0.678,-16.852c0,-0 74.364,-80.141 115.699,-143.522c10.151,-15.565 18.295,-30.029 22.534,-41.9c2.078,-5.817 3.401,-10.694 2.599,-14.447c-3.306,-15.451 -13.693,-26.799 -27.193,-34.773c-22.497,-13.288 -53.418,-17.48 -79.633,-14.309c-45.671,5.528 -130.832,55.959 -192.269,102.471c-34.801,26.344 -117.946,108.803 -178.054,159.303c-27.733,23.301 -51.287,39.733 -63.847,42.946c-21.778,5.572 -71.486,4.535 -123.043,4.561c-48.674,0.024 -99.12,0.934 -126.632,11.231c-10.631,3.978 -22.234,16.705 -32.886,31.892c-16.916,24.118 -30.996,55.042 -30.843,74.283c0.3,38.125 7.41,136.563 7.41,136.563c0.319,4.418 -1.849,8.649 -5.631,10.985c0,0 -135.01,83.181 -175.431,127.888c-43.554,48.164 -93.71,137.462 -101.267,220.364c-6.442,70.695 6.443,228.014 18.129,275.387c16.528,67.02 59.127,121.502 102.161,135.323c41.496,13.328 86.17,-9.006 108.279,-29.403c24.456,-22.558 227.507,-225.872 227.507,-225.872c0.409,-0.41 0.846,-0.788 1.308,-1.132l-35.405,-55.77c-2.593,-3.17 2.869,-18.283 5.812,-15.427c58.071,56.321 121.018,53.316 150.159,56.653c45.173,1.678 99.104,32.512 146.106,56.049c18.115,9.072 35.126,16.932 50.071,20.898c8.425,2.235 16.043,3.266 22.636,1.992c51.374,-9.926 170.034,-23.581 221.282,-25.562c3.514,-0.136 7.474,-1.684 11.874,-3.934c8.628,-4.413 18.294,-11.616 28.426,-20.333c42.133,-36.251 91.004,-97.979 105.391,-113.276c0.083,-0.091 0.167,-0.18 0.252,-0.269c6.743,-7.256 9.661,-20.877 11.397,-35.192c2.849,-23.49 1.275,-49.229 -0.739,-58.979c-1.51,-1.815 -14.966,-17.905 -29.376,-32.432c-28.78,-29.013 -71.021,-69.348 -103.812,-104.371c-0.24,2.28 -1.3,4.482 -3.153,6.126l-26.545,23.555c-2.977,2.642 -7.287,3.173 -10.822,1.334c0,-0 -29.135,-14.55 -27.198,-53.819c0.26,-5.259 4.761,-9.32 10.046,-9.062c5.285,0.259 9.364,4.739 9.105,9.998c-0.836,16.938 6.666,27.109 11.956,32.118l20.698,-18.367c1.779,-1.579 3.987,-2.376 6.198,-2.416c-12.387,-13.658 -22.845,-26.168 -29.86,-36.432c-19.792,-28.957 -69.814,-27.728 -80.643,11.592c-21.352,77.536 37.099,126.623 96.574,147.768c4.095,1.456 7.076,5.005 7.789,9.274c0.713,4.269 -0.953,8.588 -4.354,11.285c-0,-0 -76.142,60.304 -108.724,96.034c-4.445,4.874 -12.03,5.24 -16.927,0.816c-4.897,-4.423 -5.265,-11.972 -0.82,-16.846c24.036,-26.358 71.128,-65.784 95.725,-85.883c-62.583,-28.502 -115.318,-85.444 -92.376,-168.753c16.612,-60.319 93.21,-63.124 123.571,-18.702c29.317,42.892 120.149,125.526 157.17,165.065c7.109,7.593 12.367,13.773 15.19,17.974c2.185,3.251 3.298,5.98 3.74,7.875l0.001,0.003c2.393,10.26 4.722,40.539 1.379,68.103c-0.785,6.467 -1.921,12.77 -3.419,18.683c44.684,-17.625 130.476,-51.609 155.453,-62.521c30.547,-13.344 60.077,-25.735 82.22,-40.627c13.169,-8.857 23.643,-18.468 29.324,-30.116c4.466,-9.153 5.91,-36.054 6.518,-70.376c1.102,-62.228 -2.469,-147.594 -6.427,-202.386l-28.07,6.689c-1.158,0.276 -2.357,0.335 -3.536,0.174c-14.599,-1.994 -25.741,-13.986 -26.608,-28.621l-4.327,-63.427c-0.358,-5.253 3.636,-9.809 8.915,-10.165c5.279,-0.357 9.856,3.619 10.214,8.873l4.33,63.47l0.007,0.103c0.288,5.034 3.786,9.246 8.563,10.553l26.783,-6.382c0.749,-0.178 1.498,-0.264 2.236,-0.264c-0.973,-11.302 -1.937,-20.384 -2.83,-26.465c-3.449,-23.492 -7.154,-57.204 -20.445,-83.053c-5.826,-11.331 -13.526,-21.105 -24.411,-27.048c-10.931,-5.967 -24.926,-7.89 -42.88,-4.495c-38.286,7.241 -58.495,27.212 -70.884,65.28c-9.096,27.948 -14.177,64.862 -18.677,112.584c-6.718,71.259 -1.599,155.138 -1.599,155.138c0.303,4.972 -2.531,9.607 -7.107,11.625c-0,-0 -79.997,35.27 -129.29,54.908c-6.14,2.446 -13.12,-0.529 -15.578,-6.64c-2.458,-6.111 0.532,-13.058 6.672,-15.504c39.879,-15.887 99.978,-42.072 120.95,-51.261c-0.947,-20.144 -2.883,-73.786 0.253,-126.351l-85.728,20.636c-3.746,0.902 -7.54,-1.296 -8.602,-4.983c-1.063,-3.688 0.985,-7.553 4.642,-8.763l91.455,-30.278Zm222.314,-83.108c0.974,6.335 1.82,12.354 2.629,17.864c3.454,23.524 7.994,91.253 10.073,159.395c44.2,-22.649 194.014,-99.944 220.472,-120.59c28.033,-21.872 62.014,-55.228 48.629,-100.324c-4.891,-16.475 -16.864,-28.7 -33.352,-35.572c-21.756,-9.068 -50.745,-9.09 -82.719,1.698c-11.23,6.375 -23.142,12.617 -35.627,18.704c-102.11,49.781 -123.303,58.202 -123.303,58.202c-2.242,0.894 -4.596,1.065 -6.802,0.623Zm-1015.88,289.349c1.305,-2.959 1.91,-6.584 4.018,-8.782c24.225,-25.263 48.195,-50.796 73.237,-75.237c16.179,-15.788 37.958,-21.758 59.244,-26.927c31.753,-7.707 64.149,-8.985 96.481,-3.858c23.598,3.746 46.755,9.363 63.69,28.221c4.68,5.213 8.703,11.604 2.118,17.672c-6.05,5.565 -11.931,5.071 -18.34,-1.81c-16.217,-17.401 -38.614,-21.9 -60.713,-22.493c-25.469,-0.688 -51.769,-0.774 -76.413,4.683c-41.933,9.286 -79.809,28.381 -109.267,61.127c-7.303,8.115 -14.908,15.977 -22.682,23.649c-2.485,2.46 -5.954,3.931 -8.971,5.858c-0.803,-0.701 -1.603,-1.402 -2.402,-2.103Z"/><path d="M1115.5,688.83c11.118,-0 23.14,3.118 36.073,9.564c37.5,18.704 33.659,85.061 11.335,125.87c-16.658,30.45 -128.579,213.967 -148.512,213.967c-0.026,-0 -0.052,-0 -0.074,-0.005c-19.748,-0.443 -115.546,-170.701 -131.56,-199.623c-22.799,-41.175 -26.018,-110.895 46.712,-123.642c4.123,-0.723 8.073,-1.062 11.875,-1.062c63.22,0.008 82.406,94.457 82.406,94.457c0,-0 7.334,-20.928 18.94,-50.534c17.393,-44.371 41.54,-68.992 72.805,-68.992Z" style="fill:#cbb0f4;"/><path d="M1189.99,-0c5.899,-0 11.607,3.961 13.521,11.818c12.614,51.88 27.699,143.555 34.121,146.346c0.665,0.288 2.026,0.417 3.967,0.417c16.213,0 72.947,-9.143 104.129,-11.891c0.497,-0.048 0.989,-0.069 1.473,-0.069c13.521,-0 20.833,16.747 10.19,26.333c-27.073,24.381 -101.675,66.584 -101.709,72.218c-0.044,6.443 32.405,87.658 36.142,124.683c0.981,9.69 -6.404,16.7 -14.251,16.7c-3.206,-0 -6.486,-1.166 -9.308,-3.798c-28.097,-26.208 -95.811,-80.023 -102.033,-80.062l-0.009,-0c-5.423,-0 -71.374,49.979 -99.207,74.003c-2.804,2.417 -5.916,3.475 -8.928,3.475c-9.031,-0 -17.159,-9.518 -13.426,-20.3c9.784,-28.243 39.242,-103.884 38.295,-109.092c-1.201,-6.581 -70.38,-59.802 -94.955,-87.426c-8.59,-9.655 -1.996,-25.357 10.319,-25.357c0.229,-0 0.458,0.004 0.696,0.013c32.453,1.539 94.307,10.64 113.869,10.64c2.239,-0 3.919,-0.116 4.944,-0.383c8.612,-2.215 38.783,-91.133 58.103,-137.843c2.878,-6.967 8.547,-10.425 14.057,-10.425Z" style="fill:#cbb0f4;"/><path d="M887.922,517.675c-35.643,1.452 -64.32,2.846 -87.442,6.676c-21.02,3.481 -37.117,8.826 -49.331,18.861c-14.638,12.027 -23.33,30.614 -29.379,59.012c-10.066,47.263 -12.07,119.698 -14.57,231.48c-0.147,6.581 -5.573,11.827 -12.187,11.784c-6.614,-0.043 -11.97,-5.36 -12.03,-11.943c-1.028,-111.804 -2.076,-184.259 -11.52,-231.649c-5.674,-28.475 -14.121,-47.173 -28.599,-59.39c-12.081,-10.194 -28.106,-15.748 -49.079,-19.504c-23.069,-4.131 -51.725,-5.899 -87.346,-7.816c-6.456,-0.347 -11.499,-5.68 -11.456,-12.114c0.042,-6.434 5.155,-11.701 11.615,-11.964c40.855,-1.663 72.524,-3.224 97.144,-8.507c21.904,-4.7 37.753,-12.262 49.04,-26.708l0.001,-0.002c11.171,-14.291 17.932,-34.75 22.692,-63.952c7.707,-47.284 9.591,-116.125 11.844,-216.859c0.148,-6.581 5.573,-11.827 12.187,-11.784c6.614,0.043 11.97,5.36 12.031,11.942c1.027,111.805 2.076,184.26 11.519,231.65c5.675,28.474 14.121,47.173 28.599,59.39c12.081,10.194 28.106,15.748 49.079,19.503c23.07,4.132 51.726,5.9 87.346,7.816c6.456,0.348 11.499,5.68 11.457,12.115c-0.043,6.434 -5.156,11.7 -11.615,11.963Z" style="fill:#cce9cc;"/><path d="M802.469,973.863c-3.872,-10.176 -5.536,-21.68 -6.11,-29.254c-0.164,-2.128 -0.091,-4.27 0.281,-6.373c1.884,-10.632 7.108,-14.253 18.084,-14.184c11.598,0.077 17.099,9.603 17.013,22.252c-0.069,10.713 -2.187,19.052 -6.577,28.398c-4.607,9.814 -18.836,9.289 -22.691,-0.839" style="fill:#cce9cc;fill-rule:nonzero;"/><path d="M909.812,319.728c-17.19,2.32 -26.981,3.808 -32.914,9.635c-5.933,5.828 -7.556,15.551 -10.112,32.625c-0.528,3.525 -3.58,6.126 -7.16,6.102c-3.58,-0.024 -6.597,-2.665 -7.077,-6.195c-2.329,-17.106 -3.823,-26.85 -9.678,-32.755c-5.856,-5.905 -15.626,-7.52 -32.783,-10.062c-3.541,-0.524 -6.155,-3.561 -6.132,-7.124c0.023,-3.563 2.676,-6.566 6.224,-7.046c10.174,-1.374 17.874,-2.643 23.793,-4.596c4.672,-1.541 8.033,-3.449 10.468,-6.55l0.001,-0.002c4.753,-6.048 6.432,-15.554 8.764,-31.117c0.528,-3.524 3.58,-6.125 7.16,-6.101c3.58,0.024 6.597,2.665 7.077,6.196c2.329,17.108 3.823,26.852 9.678,32.756c5.856,5.905 15.627,7.52 32.784,10.064c3.541,0.525 6.154,3.563 6.131,7.125c-0.024,3.563 -2.677,6.566 -6.224,7.045Z" style="fill:#cbb0f4;"/><path d="M552.491,243.474c-7.075,6.807 -12.691,12.323 -19.625,19.275c-1.816,1.821 -4.291,2.837 -6.869,2.819c-2.577,-0.017 -5.039,-1.067 -6.829,-2.911c-6.834,-7.04 -12.376,-12.629 -19.363,-19.527c-1.831,-1.808 -2.853,-4.274 -2.835,-6.84c0.018,-2.567 1.074,-5.018 2.93,-6.8c3.413,-3.278 6.484,-6.261 9.528,-9.249c3.268,-3.205 6.502,-6.419 10.087,-10.017c1.815,-1.822 4.291,-2.839 6.869,-2.823c2.579,0.017 5.041,1.067 6.832,2.912c6.838,7.044 12.38,12.633 19.363,19.527c1.83,1.807 2.852,4.271 2.835,6.836c-0.016,2.565 -1.07,5.015 -2.923,6.798Z" style="fill:#cce9cc;"/><path d="M1156.1,554.541c-0.084,12.646 -10.468,22.845 -23.174,22.762c-12.706,-0.083 -22.954,-10.418 -22.87,-23.064c0.084,-12.646 10.468,-22.845 23.174,-22.762c12.706,0.084 22.954,10.418 22.87,23.064Z" style="fill:#cce9cc;"/><path d="M1492.96,601.23c-17.721,2.39 -27.814,3.923 -33.93,9.932c-6.116,6.008 -7.79,16.034 -10.426,33.639c-0.544,3.633 -3.691,6.314 -7.381,6.29c-3.691,-0.024 -6.802,-2.747 -7.297,-6.387c-2.402,-17.637 -3.942,-27.683 -9.979,-33.771c-6.036,-6.087 -16.108,-7.753 -33.794,-10.374c-3.651,-0.542 -6.345,-3.673 -6.321,-7.346c0.024,-3.674 2.76,-6.77 6.417,-7.263c17.299,-2.333 27.345,-3.889 33.527,-9.549c2.823,-2.587 4.617,-6.098 6.138,-10.846c1.887,-5.894 3.23,-13.428 4.687,-23.174c0.543,-3.633 3.689,-6.315 7.38,-6.292c3.691,0.024 6.802,2.746 7.298,6.387c2.403,17.637 3.945,27.683 9.982,33.771c6.037,6.087 16.109,7.753 33.795,10.375c3.651,0.541 6.346,3.672 6.321,7.346c-0.024,3.673 -2.76,6.769 -6.417,7.262Z" style="fill:#cce9cc;"/><path d="M1322.63,730.532c-5.491,5.281 -9.852,9.566 -15.232,14.963c-1.872,1.878 -4.425,2.926 -7.082,2.908c-2.658,-0.018 -5.196,-1.1 -7.043,-3.003c-5.305,-5.467 -9.604,-9.806 -15.025,-15.153c-1.887,-1.863 -2.941,-4.403 -2.924,-7.048c0.016,-2.645 1.103,-5.172 3.014,-7.01c5.49,-5.281 9.85,-9.565 15.225,-14.961c1.871,-1.878 4.423,-2.927 7.08,-2.911c2.658,0.017 5.197,1.098 7.044,3c2.601,2.678 4.962,5.088 7.332,7.477l0.011,0.01c2.459,2.486 4.93,4.945 7.692,7.673c1.886,1.863 2.939,4.403 2.922,7.047c-0.017,2.644 -1.104,5.17 -3.014,7.008Z" style="fill:#cbb0f4;"/></g><g><path d="M502.845,1980.33l-45.838,-26.375l54.63,-109.698l11.01,-19.13l-4.784,-2.75l-11.01,19.13l-67.384,102.358l-45.839,-26.375l75.491,-142.263l23.914,13.764l-57.818,107.858l-10.32,17.94l4.779,2.75l10.325,-17.935l67.384,-102.358l42.25,24.311l-54.63,109.697l-10.32,17.94l4.783,2.75l10.32,-17.935l64.198,-104.197l23.918,13.764l-85.059,136.754Z" style="fill-rule:nonzero;"/><path d="M621.923,1931.23c-6.862,-2.656 -13.115,-3.062 -18.76,-1.222c-5.644,1.853 -9.995,4.81 -13.052,8.886l50.185,19.409c1.077,-5.338 -0,-10.514 -3.233,-15.545c-3.228,-5.036 -8.278,-8.877 -15.14,-11.528m-41.199,30.658c-1.073,3.201 -1.442,6.388 -1.104,9.558c0.329,3.169 1.307,6.177 2.921,9.017c1.61,2.845 3.747,5.392 6.407,7.655c2.655,2.259 5.703,4.058 9.134,5.388c6.718,2.597 12.322,3.404 16.808,2.43c4.486,-0.978 8.152,-2.804 10.996,-5.482l18.188,21.826c-2.34,2.218 -5.221,4.346 -8.638,6.397c-3.422,2.047 -7.426,3.576 -12.011,4.595c-4.59,1.028 -9.793,1.312 -15.618,0.861c-5.829,-0.447 -12.245,-2.025 -19.251,-4.73c-8.008,-3.097 -14.802,-7.204 -20.379,-12.322c-5.582,-5.121 -9.829,-11.032 -12.737,-17.745c-2.912,-6.713 -4.332,-14.085 -4.265,-22.115c0.059,-8.025 1.808,-16.474 5.239,-25.338l0.496,-1.289c3.152,-8.143 7.421,-15.041 12.809,-20.685c5.388,-5.641 11.425,-9.879 18.111,-12.715c6.681,-2.84 13.791,-4.319 21.321,-4.45c7.524,-0.13 15.009,1.245 22.443,4.121c9.148,3.535 16.389,8.188 21.722,13.945c5.334,5.762 9.189,11.939 11.569,18.53c2.385,6.592 3.427,13.242 3.134,19.951c-0.293,6.704 -1.52,12.845 -3.675,18.426l-5.559,14.364l-78.061,-30.193Z" style="fill-rule:nonzero;"/><path d="M941.337,1934.14c-0.194,3.066 -0.946,5.897 -2.263,8.498c-1.316,2.606 -3.034,4.802 -5.14,6.587c-2.11,1.79 -4.54,3.17 -7.29,4.153c-2.75,0.974 -5.582,1.37 -8.485,1.186c-3.061,-0.19 -5.852,-0.943 -8.382,-2.255c-2.529,-1.312 -4.729,-2.984 -6.591,-5.022c-1.871,-2.038 -3.291,-4.428 -4.274,-7.182c-0.974,-2.746 -1.371,-5.654 -1.177,-8.711c0.194,-3.061 0.951,-5.893 2.263,-8.499c1.317,-2.601 3.03,-4.801 5.14,-6.587c2.106,-1.789 4.5,-3.174 7.173,-4.156c2.674,-0.988 5.541,-1.38 8.603,-1.186c2.903,0.18 5.658,0.929 8.264,2.245c2.601,1.317 4.842,2.998 6.713,5.036c1.862,2.038 3.287,4.432 4.27,7.178c0.978,2.754 1.366,5.658 1.176,8.715m-82.155,115.315l38.558,2.43l3.701,-58.746l-35.798,-2.259l1.741,-27.534l64.711,4.08l-5.442,86.285l33.043,2.083l-1.736,27.538l-100.513,-6.339l1.735,-27.538Z" style="fill-rule:nonzero;"/><path d="M1017.11,2073.59l-28.863,2.52l-9.91,-113.62l28.868,-2.516l1.47,16.953l4.13,-0.366c2.033,-6.636 5.793,-11.965 11.298,-15.982c5.496,-4.018 12.133,-6.371 19.928,-7.047c5.491,-0.478 10.726,-0.05 15.69,1.285c4.968,1.334 9.441,3.679 13.422,7.024c3.99,3.341 7.254,7.755 9.81,13.219c2.552,5.473 4.171,12.101 4.852,19.892l6.267,71.925l-28.855,2.516l-5.636,-64.595c-0.703,-8.092 -3.215,-14.296 -7.511,-18.62c-4.297,-4.315 -10.117,-6.154 -17.444,-5.514c-8.562,0.744 -14.68,4.166 -18.377,10.257c-3.71,6.096 -5.135,13.95 -4.292,23.571l5.153,59.098Z" style="fill-rule:nonzero;"/><path d="M1307.85,1935.66l63.711,-26.447l31.208,75.18l-25.487,10.577l-6.875,-16.569l-3.824,1.591c0.596,6.227 -0.739,12.219 -3.99,17.962c-3.259,5.753 -9.702,10.627 -19.332,14.622c-6.79,2.822 -13.693,4.188 -20.695,4.111c-7.006,-0.081 -13.746,-1.722 -20.22,-4.927c-6.475,-3.201 -12.53,-7.994 -18.165,-14.369c-5.632,-6.375 -10.505,-14.513 -14.617,-24.432l-14.459,-34.824c-3.995,-9.626 -6.154,-18.729 -6.483,-27.313c-0.325,-8.575 0.897,-16.425 3.67,-23.548c2.768,-7.128 7.006,-13.409 12.714,-18.85c5.712,-5.438 12.669,-9.865 20.879,-13.269c8.498,-3.53 16.641,-5.293 24.445,-5.293c7.795,-0 15.05,1.47 21.749,4.414c6.696,2.948 12.615,7.213 17.76,12.795c5.135,5.582 9.265,12.133 12.38,19.635l1.055,2.543l-28.03,11.636l-1.059,-2.547c-3.702,-8.918 -8.81,-14.725 -15.32,-17.417c-6.511,-2.687 -13.941,-2.299 -22.295,1.164c-7.935,3.295 -13.341,8.647 -16.235,16.077c-2.89,7.421 -1.664,17.579 3.683,30.46l13.043,31.429c9.527,22.935 23.63,30.527 42.318,22.768c8.354,-3.467 13.76,-8.327 16.231,-14.576c2.466,-6.253 2.141,-13.133 -0.974,-20.636l-35.676,14.811l-11.11,-26.758Z" style="fill-rule:nonzero;"/><path d="M1471.2,1917.74c7.2,-4.378 11.515,-10.271 12.926,-17.683c1.416,-7.408 -0.388,-15.239 -5.406,-23.494l-1.429,-2.354c-5.022,-8.25 -11.14,-13.453 -18.377,-15.604c-7.222,-2.155 -14.445,-1.041 -21.645,3.341c-7.205,4.382 -11.511,10.275 -12.931,17.687c-1.411,7.408 0.388,15.239 5.41,23.49l1.43,2.353c5.018,8.251 11.145,13.458 18.372,15.609c7.232,2.155 14.441,1.037 21.65,-3.345m26.064,-6.7c1.123,7.75 0.108,14.332 -3.052,19.756c-3.165,5.42 -7.89,10.041 -14.175,13.869c-5.897,3.584 -12.11,5.834 -18.634,6.753c-6.528,0.92 -13.07,0.415 -19.626,-1.519c-6.555,-1.934 -12.858,-5.279 -18.891,-10.045c-6.037,-4.757 -11.442,-11.073 -16.221,-18.927l-1.912,-3.142c-4.698,-7.728 -7.809,-15.348 -9.328,-22.859c-1.515,-7.511 -1.691,-14.58 -0.519,-21.213c1.173,-6.627 3.58,-12.623 7.232,-17.984c3.643,-5.356 8.35,-9.793 14.112,-13.296c6.943,-4.224 13.26,-6.447 18.949,-6.682c5.686,-0.225 11.294,1.389 16.808,4.856l3.535,-2.155l-7.164,-11.785l24.752,-15.054l41.339,67.975c2.389,3.927 5.351,4.815 8.886,2.665l3.733,-2.268l14.337,23.571l-16.893,10.279c-4.455,2.705 -8.887,3.611 -13.296,2.701c-4.409,-0.907 -7.885,-3.454 -10.437,-7.647l-3.535,2.151Z" style="fill-rule:nonzero;"/><path d="M1661.53,1805.7l-22.191,18.625l-51.443,-61.29c-2.069,-2.466 -4.238,-3.796 -6.506,-3.994c-2.268,-0.199 -4.4,0.541 -6.397,2.218c-2.349,1.97 -3.607,4.224 -3.774,6.767c-0.167,2.543 0.933,5.226 3.296,8.044l50.554,60.229l-22.191,18.625l-51.443,-61.289c-2.069,-2.466 -4.296,-3.747 -6.677,-3.846c-2.389,-0.099 -4.522,0.64 -6.397,2.214c-2.115,1.772 -3.287,3.958 -3.513,6.551c-0.22,2.588 0.848,5.293 3.211,8.115l50.554,60.23l-22.191,18.625l-73.318,-87.354l22.186,-18.629l7.101,8.454l3.17,-2.66c-1.957,-3.761 -2.538,-7.724 -1.736,-11.898c0.803,-4.175 3.255,-7.99 7.363,-11.434c3.872,-3.255 8.025,-4.987 12.452,-5.199c4.423,-0.211 8.436,0.875 12.033,3.256l3.175,-2.665c-1.723,-3.954 -1.948,-8.219 -0.681,-12.786c1.271,-4.567 4.134,-8.72 8.598,-12.466c5.87,-4.928 12.218,-6.907 19.039,-5.929c6.831,0.978 13.147,4.928 18.959,11.857l56.767,67.629Z" style="fill-rule:nonzero;"/><path d="M1657.13,1680.93c-4.856,5.527 -7.394,11.258 -7.606,17.191c-0.217,5.933 1.059,11.037 3.832,15.311l35.523,-40.41c-4.635,-2.854 -9.869,-3.629 -15.708,-2.331c-5.834,1.303 -11.186,4.711 -16.041,10.239m14.571,49.242c2.633,2.119 5.501,3.562 8.594,4.338c3.088,0.78 6.244,0.901 9.472,0.369c3.224,-0.536 6.353,-1.659 9.392,-3.377c3.043,-1.717 5.779,-3.954 8.205,-6.717c4.757,-5.415 7.448,-10.393 8.084,-14.942c0.627,-4.549 0.176,-8.616 -1.357,-12.213l26.754,-9.54c1.28,2.957 2.285,6.397 3.025,10.311c0.744,3.918 0.802,8.201 0.176,12.863c-0.618,4.657 -2.146,9.639 -4.572,14.954c-2.43,5.32 -6.127,10.794 -11.082,16.434c-5.667,6.452 -11.867,11.416 -18.593,14.883c-6.732,3.48 -13.742,5.424 -21.046,5.838c-7.309,0.42 -14.716,-0.793 -22.232,-3.62c-7.511,-2.827 -14.838,-7.38 -21.979,-13.656l-1.033,-0.911c-6.569,-5.767 -11.564,-12.151 -15.004,-19.157c-3.436,-7.002 -5.334,-14.13 -5.69,-21.384c-0.361,-7.254 0.699,-14.432 3.174,-21.551c2.475,-7.105 6.339,-13.656 11.605,-19.644c6.479,-7.367 13.337,-12.561 20.582,-15.581c7.25,-3.016 14.378,-4.509 21.384,-4.468c7.006,0.036 13.611,1.352 19.806,3.936c6.195,2.592 11.537,5.856 16.028,9.806l11.569,10.167l-55.262,62.862Z" style="fill-rule:nonzero;"/><path d="M1729.88,1611.35c3.097,1.979 6.357,1.794 9.779,-0.564c3.422,-2.358 8.318,-7.511 14.671,-15.46c7.313,-9.143 15.374,-15.27 24.179,-18.372c8.81,-3.097 17.543,-1.876 26.19,3.661l1.164,0.744c9.558,6.113 14.941,14.477 16.158,25.081c1.222,10.613 -2.223,22.241 -10.324,34.892c-4.788,7.493 -9.847,13.259 -15.172,17.312c-5.324,4.058 -10.559,6.899 -15.689,8.522c-5.14,1.627 -10.082,2.245 -14.829,1.839c-4.748,-0.401 -9.008,-1.352 -12.777,-2.854l7.015,-27.177c4.797,1.614 9.793,1.767 15,0.455c5.207,-1.312 9.995,-5.383 14.378,-12.227c3.882,-6.069 5.613,-10.83 5.185,-14.288c-0.42,-3.458 -1.732,-5.888 -3.932,-7.295c-1.289,-0.825 -2.664,-1.303 -4.139,-1.424c-1.465,-0.118 -3.183,0.288 -5.139,1.217c-1.966,0.929 -4.112,2.511 -6.452,4.738c-2.34,2.237 -4.987,5.235 -7.935,8.986c-7.841,10.27 -16.168,17.092 -24.973,20.464c-8.801,3.373 -17.782,2.128 -26.952,-3.737l-1.164,-0.749c-4.774,-3.052 -8.313,-6.772 -10.604,-11.154c-2.29,-4.378 -3.625,-9.053 -3.99,-14.021c-0.369,-4.969 0.203,-10.059 1.718,-15.275c1.519,-5.212 3.765,-10.149 6.745,-14.798c3.882,-6.068 7.994,-10.856 12.326,-14.359c4.337,-3.503 8.693,-6.042 13.062,-7.606c4.373,-1.574 8.629,-2.399 12.772,-2.475c4.148,-0.077 7.904,0.234 11.276,0.937l-5.221,27.782c-4.229,-1.068 -8.25,-0.825 -12.074,0.735c-3.814,1.56 -7.173,4.599 -10.063,9.116c-2.646,4.13 -3.886,7.705 -3.724,10.722c0.162,3.016 1.344,5.225 3.535,6.632" style="fill-rule:nonzero;"/></g></g></svg>